<svg xmlns="http://www.w3.org/2000/svg" width="48" height="36" viewBox="0 0 48 36" shape-rendering="crispEdges">
  <path d="M8 17 13 8l7-4 8 5 8 1 5 6-4 8-9 2-9-3-8 1Z" fill="#9b6034" stroke="#211a17" stroke-width="3"/>
  <path d="M27 9 31 3l9 1 5 8-5 8-8-3Z" fill="#aa7040" stroke="#211a17" stroke-width="3"/>
  <path d="M34 5 39 1l6 3-4 5Z" fill="#3a2923"/><rect x="38" y="9" width="3" height="3" fill="#f1d287"/>
  <path d="M12 24 10 34h4l4-9M24 25l-1 9h5l1-10M34 24l3 10h4l-2-11" fill="#5a3729" stroke="#211a17" stroke-width="3"/>
  <path d="M7 15 2 20h7" fill="none" stroke="#5b3828" stroke-width="4"/><path d="M18 11h17" stroke="#d29a51" stroke-width="2"/>
</svg>
